<?xml version="1.0" encoding="utf-8"?>
<!-- Generator: Adobe Illustrator 26.3.1, SVG Export Plug-In . SVG Version: 6.00 Build 0)  -->
<svg version="1.1" id="Layer_1" xmlns="http://www.w3.org/2000/svg" xmlns:xlink="http://www.w3.org/1999/xlink" x="0px" y="0px"
	 viewBox="0 0 24 24" style="enable-background:new 0 0 24 24;" xml:space="preserve">
<style type="text/css">
	.st0{fill-rule:evenodd;clip-rule:evenodd;fill:#1C1C1D;}
	.st1{fill:#9CA3AF;}
</style>
<g>
	<path class="st0" d="M5,24h14c2.8,0,5-2.2,5-5V1c0-0.5-0.4-1-1-1H1C0.4,0,0,0.4,0,1v18C0,21.8,2.2,24,5,24z"/>
	<path class="st0" d="M19,0H5C2.2,0,0,2.2,0,5v18c0,0.5,0.4,1,1,1h22c0.5,0,1-0.4,1-1V5C24,2.2,21.8,0,19,0z"/>
</g>
<path class="st1" d="M12,12.7L0,3h24L12,12.7z M6.6,10.9L0,5.6v12.5L6.6,10.9z M17.4,10.9l6.6,7.2V5.6L17.4,10.9z M15.9,12.2
	L12,15.3l-3.9-3.1L0,21h24L15.9,12.2z"/>
</svg>
