<?xml version="1.0" encoding="utf-8"?>
<!-- Generator: Adobe Illustrator 26.3.1, SVG Export Plug-In . SVG Version: 6.00 Build 0)  -->
<svg version="1.1" id="Layer_1" xmlns="http://www.w3.org/2000/svg" xmlns:xlink="http://www.w3.org/1999/xlink" x="0px" y="0px"
	 viewBox="0 0 72 72" style="enable-background:new 0 0 72 72;" xml:space="preserve">
<style type="text/css">
	.st0{fill-rule:evenodd;clip-rule:evenodd;fill:#9CA3AF;}
	.st1{fill:#1C1C1D;}
</style>
<g>
	<path class="st0" d="M14.9,72H57c8.3,0,15-6.7,15-14.9V14.9C72,6.7,65.3,0,57.1,0H14.9C6.7,0,0,6.7,0,14.9V57
		C0,65.3,6.7,72,14.9,72z"/>
</g>
<path class="st1" d="M36,59.1c-7.4,0-13.5-6.1-13.5-13.5S28.6,32.2,36,32.2s13.5,6.1,13.5,13.5S43.4,59.1,36,59.1z M36,12.9
	L12.9,31.2l9.3,7.6c2.6-5.3,7.9-8.6,13.7-8.6s11.2,3.3,13.7,8.6l9.3-7.6L36,12.9z"/>
</svg>
