<?xml version="1.0" encoding="utf-8"?>
<!-- Generator: Adobe Illustrator 26.3.1, SVG Export Plug-In . SVG Version: 6.00 Build 0)  -->
<svg version="1.1" id="Layer_1" xmlns="http://www.w3.org/2000/svg" xmlns:xlink="http://www.w3.org/1999/xlink" x="0px" y="0px"
	 viewBox="0 0 72 72" style="enable-background:new 0 0 72 72;" xml:space="preserve">
<style type="text/css">
	.st0{fill-rule:evenodd;clip-rule:evenodd;fill:#9CA3AF;}
	.st1{fill-rule:evenodd;clip-rule:evenodd;fill:#1C1C1D;}
</style>
<g>
	<path class="st0" d="M14.9,72H57c8.3,0,15-6.7,15-14.9V14.9C72,6.7,65.3,0,57.1,0H14.9C6.7,0,0,6.7,0,14.9V57
		C0,65.3,6.7,72,14.9,72z"/>
	<path class="st1" d="M58.9,60h-7.6c-0.6,0-1.1-0.5-1.1-1.1V43.2c0-4.6-1.8-7.2-5.4-7.2c-4,0-6,2.7-6,7.2v15.7
		c0,0.6-0.5,1.1-1.1,1.1h-7.2c-0.6,0-1.1-0.5-1.1-1.1V29.1c0-0.6,0.5-1.1,1.1-1.1h7.2c0.6,0,1.1,0.5,1.1,1.1l0,0
		c0,1,1.2,1.5,1.9,0.9c1.5-1.4,4.1-3,7.7-3C55.1,27,60,31.2,60,39.7v19.1C60,59.5,59.5,60,58.9,60z M17.9,23.8
		c-3.2,0-5.9-2.6-5.9-5.9s2.6-5.9,5.9-5.9s5.9,2.6,5.9,5.9S21.1,23.8,17.9,23.8z M14.1,60h7.6c0.6,0,1.1-0.5,1.1-1.1V29.1
		c0-0.6-0.5-1.1-1.1-1.1h-7.6c-0.6,0-1.1,0.5-1.1,1.1v29.7C13,59.5,13.5,60,14.1,60z"/>
</g>
</svg>
