<?xml version="1.0" encoding="utf-8"?>
<!-- Generator: Adobe Illustrator 26.3.1, SVG Export Plug-In . SVG Version: 6.00 Build 0)  -->
<svg version="1.1" id="Layer_1" xmlns="http://www.w3.org/2000/svg" xmlns:xlink="http://www.w3.org/1999/xlink" x="0px" y="0px"
	 viewBox="0 0 24 24" style="enable-background:new 0 0 24 24;" xml:space="preserve">
<style type="text/css">
	.st0{fill:#9CA3AF;}
</style>
<path class="st0" d="M18.5,2C19.8,2,21,3.2,21,4.4c0,1.4-1,3.3-2.5,5.7C17,7.7,16,5.8,16,4.4C16,3.2,17.2,2,18.5,2z M18.5,0
	C16.1,0,14,2,14,4.4s2,5.4,4.5,9.6C21,9.8,23,6.9,23,4.4C23,2,20.9,0,18.5,0z M18.5,6C17.7,6,17,5.3,17,4.5S17.7,3,18.5,3
	S20,3.7,20,4.5S19.3,6,18.5,6z M11.2,7.2c0,0-0.3,0-0.2-0.1L11.1,7c0-0.1,0.1-0.2,0-0.3V6.6H11c0,0,0.1-0.6,0.3-0.3l-0.1,0.1
	c0.1,0.1,0.2,0.4,0.2,0.6c0.1,0.1,0.3,0.1,0.1,0.2c0.1,0-0.6,0.3-0.6,0.2C10.9,7.3,11.2,7.3,11.2,7.2z M10.5,7.1
	C10.4,7.2,10.5,7.2,10.5,7.1c0.2,0,0.3,0,0.4-0.1L11,6.9l-0.1-0.1c-0.1,0-0.1,0.1-0.1,0.1h-0.1L10.5,7.1L10.5,7.1
	C10.6,7,10.5,7.1,10.5,7.1z M17.5,16.2L16.8,15l-0.7-1.2c-0.7-1.2-1.4-2.3-2-3.3L14,10.6c-0.4,0.2-0.9-0.5-1.3-0.5
	c0.2,0,0-0.5,0-0.5c-0.2-0.2-1.1,0-1.4,0.1c-0.5,0.1-1,0.1-1.3,0.4c-0.3,0.2-0.3,0.6-0.5,0.7C9.3,10.9,9.1,10.9,9,11
	c-0.3,0.2-0.6,0.6-0.7,0.9c-0.1,0.1,0.1,0.5,0,0.6c-0.3,1,0.1,2.5,1.4,2.7c0.3,0,0.6,0.2,1,0.1c0.3-0.1,0.5-0.2,0.7-0.3
	c0.4,0,0.2,0.5,0.7,0.4c0.3-0.1,0.4,0.2,0.4,0.4c-0.1,0.4-0.3,0.6,0.1,0.9c0.2,0.2,0.4,0.5,0.5,0.8c0,0.2,0.2,0.5,0,0.6
	c-0.1,0.1-0.3,0.5-0.3,0.6c0,0.2,0.4,0.5,0.5,0.6c0.1,0.2,0,0.4,0.2,0.7c0.1,0.2,0.2,0.4,0.3,0.6c0.1,0.3,1,0,1.2,0
	c0.7,0,1-0.9,1.5-1.2c0.3-0.2,0.2-0.6,0.5-0.8c0.3-0.2,0.6-0.3,0.6-0.7c0-0.3-0.3-1.1-0.1-1.4C17.4,16.4,17.5,16.2,17.5,16.2z
	 M10.2,8.5c0,0.2-0.1,0.6-0.2,0.8c0,0.1,0.4,0.2,0.4,0.3c0,0,0.6-0.2,0.7-0.3L11.3,9c0.1-0.1,0.2-0.1,0.4-0.2l0.2-0.3
	c0.1,0,0.7-0.1,0.8-0.1c0.2,0.1,0.5,0.4,0.6,0.5l0,0C13,8.2,12.7,7.6,12.5,7h-0.1c-0.2,0-0.5,0.3-0.7,0.4C11.6,7.6,11,7.8,11,7.8
	c0.3,0,0.3,0.3,0.3,0.5C11.2,8.7,10.2,8.3,10.2,8.5z M21.1,13.5c-0.3,4.8-4.3,8.6-9.1,8.6c-2.6,0-5-1.1-6.6-2.8
	c-0.2-0.2-0.3-0.7,0-0.9l0.3-0.1c0.3-0.2-0.2-1.1,0-1.3c0.6-0.4,0.3-1-0.1-1.4c-0.2-0.2-1-1.1-1.1-0.9c0.1-0.2-0.2-0.9-0.3-1.1
	C4,13.2,3.6,13,3.5,12.5c0-0.2,0-0.7-0.2-0.8c0-0.1-0.4-0.2-0.3-0.3C3.3,9.7,4.1,8,5.3,6.7l0.8-0.3c0.5-0.8,0.5-0.2,1-0.4
	c0.2,0,0.3-0.6,0.5-0.7c0.3-0.2,0.1-0.2,0-0.3C7.5,4.8,10,3.9,10.1,4.1c0,0.1-1.2,0.8-1.1,0.8c-0.3,0-0.4,0.6-0.3,0.6
	c0.2,0,1.2-0.8,1.7-0.6C10.8,5,11.6,4.5,12,4.2l0,0c0-0.8,0.2-1.5,0.5-2.2L12,2C5.9,2,1,6.9,1,13s4.9,11,11,11s11-4.9,11-11
	c0-0.8-0.1-1.5-0.2-2.2C22.3,11.6,21.7,12.6,21.1,13.5z"/>
</svg>
