<?xml version="1.0" encoding="utf-8"?>
<!-- Generator: Adobe Illustrator 26.3.1, SVG Export Plug-In . SVG Version: 6.00 Build 0)  -->
<svg version="1.1" id="Layer_1" xmlns="http://www.w3.org/2000/svg" xmlns:xlink="http://www.w3.org/1999/xlink" x="0px" y="0px"
	 viewBox="0 0 72 72" style="enable-background:new 0 0 72 72;" xml:space="preserve">
<style type="text/css">
	.st0{fill-rule:evenodd;clip-rule:evenodd;fill:#1C1C1D;}
	.st1{fill-rule:evenodd;clip-rule:evenodd;fill:url(#gradient_gy_00000134243761745791784310000014885824735633383612_);}
	.st2{display:none;fill-rule:evenodd;clip-rule:evenodd;fill:#FFB86C;}
	.st3{display:none;fill-rule:evenodd;clip-rule:evenodd;fill:#1C1C1D;}
	.st4{fill:#FFB86C;}
	.st5{font-family:'PlusJakartaSans-ExtraBold';}
	.st6{font-size:46px;}
</style>
<path id="black" class="st0" d="M14.9,72H57c8.3,0,15-6.7,15-14.9V14.9C72,6.7,65.3,0,57.1,0H14.9C6.7,0,0,6.7,0,14.9V57
	C0,65.3,6.7,72,14.9,72z"/>
<linearGradient id="gradient_gy_00000131358826916925563780000017630981931330475935_" gradientUnits="userSpaceOnUse" x1="0.2509" y1="37.3858" x2="70.5315" y2="37.3858" gradientTransform="matrix(1 0 0 -1 0 73.3858)">
	<stop  offset="5.086765e-03" style="stop-color:#B4B4B4"/>
	<stop  offset="1" style="stop-color:#FFB86C"/>
</linearGradient>
<path id="gradient_gy" style="fill-rule:evenodd;clip-rule:evenodd;fill:url(#gradient_gy_00000131358826916925563780000017630981931330475935_);" d="
	M14.9,72H57c8.3,0,15-6.7,15-14.9V14.9C72,6.7,65.3,0,57.1,0H14.9C6.7,0,0,6.7,0,14.9V57C0,65.3,6.7,72,14.9,72z"/>
<path id="solid_y" class="st2" d="M14.9,72H57c8.3,0,15-6.7,15-14.9V14.9C72,6.7,65.3,0,57.1,0H14.9C6.7,0,0,6.7,0,14.9V57
	C0,65.3,6.7,72,14.9,72z"/>
<path id="front_sm" class="st0" d="M55.4,66.8H16.6c-6.3,0-11.4-5.1-11.4-11.4V16.6c0-6.3,5.1-11.4,11.4-11.4h38.7
	c6.3,0,11.4,5.1,11.4,11.4v38.7C66.8,61.7,61.7,66.8,55.4,66.8z"/>
<path id="front_bg" class="st3" d="M55.5,69.1H16.5C9,69.1,2.9,63,2.9,55.5V16.5C2.9,9,9,2.9,16.5,2.9h38.9C63,2.9,69.1,9,69.1,16.5
	v38.9C69.1,63,63,69.1,55.5,69.1z"/>
<text transform="matrix(1 0 0 1 16.2643 53.1346)" class="st4 st5 st6">K.</text>
</svg>
