<svg id="Layer_1" data-name="Layer 1" xmlns="http://www.w3.org/2000/svg" xmlns:xlink="http://www.w3.org/1999/xlink" viewBox="0 0 72 72"><defs><style>.cls-1{fill:#1c1c1d;}.cls-1,.cls-2{fill-rule:evenodd;}.cls-2{fill:url(#linear-gradient);}.cls-3{isolation:isolate;}.cls-4{fill:#ffb86c;}</style><linearGradient id="linear-gradient" x1="0.25" y1="76" x2="70.53" y2="76" gradientTransform="translate(0 -40)" gradientUnits="userSpaceOnUse"><stop offset="0.01" stop-color="#b4b4b4"/><stop offset="1" stop-color="#ffb86c"/></linearGradient></defs><path id="black" class="cls-1" d="M14.9,72H57A15,15,0,0,0,72,57.1V14.9A14.94,14.94,0,0,0,57.1,0H14.9A14.94,14.94,0,0,0,0,14.9V57A15,15,0,0,0,14.9,72Z"/><path id="gradient_gy" data-name="gradient gy" class="cls-2" d="M14.9,72H57A15,15,0,0,0,72,57.1V14.9A14.94,14.94,0,0,0,57.1,0H14.9A14.94,14.94,0,0,0,0,14.9V57A15,15,0,0,0,14.9,72Z"/><path id="front_sm" data-name="front sm" class="cls-1" d="M55.4,66.8H16.6A11.39,11.39,0,0,1,5.2,55.4V16.6A11.39,11.39,0,0,1,16.6,5.2H55.3A11.39,11.39,0,0,1,66.7,16.6V55.3A11.27,11.27,0,0,1,55.4,66.8Z"/><g class="cls-3"><path class="cls-4" d="M19.3,53.13V18.86h7.13V36l-2-.69L38.16,18.86h8.92L33.51,35.24l.42-5.06,13.43,23H39L30.66,38.64l-4.23,5.11v9.38Z"/><path class="cls-4" d="M53.8,53.13v-6.9h6.9v6.9Z"/></g></svg>